<?xml version="1.0" encoding="UTF-8" standalone="no"?>
<!DOCTYPE svg PUBLIC "-//W3C//DTD SVG 1.1//EN"
 "http://www.w3.org/Graphics/SVG/1.1/DTD/svg11.dtd">
<!-- Generated by graphviz version 12.0.0 (0)
 -->
<!-- Pages: 1 -->
<svg width="215pt" height="620pt"
 viewBox="0.00 0.00 215.15 620.00" xmlns="http://www.w3.org/2000/svg" xmlns:xlink="http://www.w3.org/1999/xlink">
<g id="graph0" class="graph" transform="scale(1 1) rotate(0) translate(4 616)">
<polygon fill="white" stroke="none" points="-4,4 -4,-616 211.15,-616 211.15,4 -4,4"/>
<!-- TTC -->
<g id="node1" class="node">
<title>TTC</title>
<ellipse fill="none" stroke="black" cx="105.34" cy="-594" rx="28.32" ry="18"/>
<text text-anchor="middle" x="105.34" y="-588.95" font-family="Times,serif" font-size="14.00">TTC</text>
</g>
<!-- TCA -->
<g id="node2" class="node">
<title>TCA</title>
<ellipse fill="none" stroke="black" cx="29.34" cy="-522" rx="29.34" ry="18"/>
<text text-anchor="middle" x="29.34" y="-516.95" font-family="Times,serif" font-size="14.00">TCA</text>
</g>
<!-- TTC&#45;&gt;TCA -->
<g id="edge1" class="edge">
<title>TTC&#45;&gt;TCA</title>
<path fill="none" stroke="black" d="M89.96,-578.83C79.49,-569.19 65.42,-556.23 53.47,-545.22"/>
<polygon fill="black" stroke="black" points="56.06,-542.85 46.34,-538.65 51.32,-548 56.06,-542.85"/>
</g>
<!-- TCT -->
<g id="node3" class="node">
<title>TCT</title>
<ellipse fill="none" stroke="black" cx="105.34" cy="-522" rx="28.32" ry="18"/>
<text text-anchor="middle" x="105.34" y="-516.95" font-family="Times,serif" font-size="14.00">TCT</text>
</g>
<!-- TTC&#45;&gt;TCT -->
<g id="edge13" class="edge">
<title>TTC&#45;&gt;TCT</title>
<path fill="none" stroke="black" d="M105.34,-575.7C105.34,-568.41 105.34,-559.73 105.34,-551.54"/>
<polygon fill="black" stroke="black" points="108.84,-551.62 105.34,-541.62 101.84,-551.62 108.84,-551.62"/>
</g>
<!-- CAT -->
<g id="node7" class="node">
<title>CAT</title>
<ellipse fill="none" stroke="black" cx="29.34" cy="-378" rx="28.32" ry="18"/>
<text text-anchor="middle" x="29.34" y="-372.95" font-family="Times,serif" font-size="14.00">CAT</text>
</g>
<!-- TCA&#45;&gt;CAT -->
<g id="edge10" class="edge">
<title>TCA&#45;&gt;CAT</title>
<path fill="none" stroke="black" d="M29.34,-503.59C29.34,-479.61 29.34,-436.14 29.34,-407.42"/>
<polygon fill="black" stroke="black" points="32.84,-407.62 29.34,-397.62 25.84,-407.62 32.84,-407.62"/>
</g>
<!-- CTT -->
<g id="node4" class="node">
<title>CTT</title>
<ellipse fill="none" stroke="black" cx="104.34" cy="-450" rx="28.32" ry="18"/>
<text text-anchor="middle" x="104.34" y="-444.95" font-family="Times,serif" font-size="14.00">CTT</text>
</g>
<!-- TCT&#45;&gt;CTT -->
<g id="edge2" class="edge">
<title>TCT&#45;&gt;CTT</title>
<path fill="none" stroke="black" d="M105.1,-503.7C104.99,-496.41 104.87,-487.73 104.75,-479.54"/>
<polygon fill="black" stroke="black" points="108.25,-479.57 104.61,-469.62 101.25,-479.67 108.25,-479.57"/>
</g>
<!-- TTA -->
<g id="node10" class="node">
<title>TTA</title>
<ellipse fill="none" stroke="black" cx="104.34" cy="-378" rx="28.83" ry="18"/>
<text text-anchor="middle" x="104.34" y="-372.95" font-family="Times,serif" font-size="14.00">TTA</text>
</g>
<!-- CTT&#45;&gt;TTA -->
<g id="edge7" class="edge">
<title>CTT&#45;&gt;TTA</title>
<path fill="none" stroke="black" d="M104.34,-431.7C104.34,-424.41 104.34,-415.73 104.34,-407.54"/>
<polygon fill="black" stroke="black" points="107.84,-407.62 104.34,-397.62 100.84,-407.62 107.84,-407.62"/>
</g>
<!-- TGA -->
<g id="node5" class="node">
<title>TGA</title>
<ellipse fill="none" stroke="black" cx="105.34" cy="-90" rx="29.86" ry="18"/>
<text text-anchor="middle" x="105.34" y="-84.95" font-family="Times,serif" font-size="14.00">TGA</text>
</g>
<!-- GAT -->
<g id="node6" class="node">
<title>GAT</title>
<ellipse fill="none" stroke="black" cx="76.34" cy="-18" rx="28.83" ry="18"/>
<text text-anchor="middle" x="76.34" y="-12.95" font-family="Times,serif" font-size="14.00">GAT</text>
</g>
<!-- TGA&#45;&gt;GAT -->
<g id="edge3" class="edge">
<title>TGA&#45;&gt;GAT</title>
<path fill="none" stroke="black" d="M98.32,-72.05C95.12,-64.32 91.24,-54.96 87.64,-46.27"/>
<polygon fill="black" stroke="black" points="90.94,-45.09 83.88,-37.19 84.47,-47.77 90.94,-45.09"/>
</g>
<!-- ATT -->
<g id="node8" class="node">
<title>ATT</title>
<ellipse fill="none" stroke="black" cx="104.34" cy="-234" rx="27.81" ry="18"/>
<text text-anchor="middle" x="104.34" y="-228.95" font-family="Times,serif" font-size="14.00">ATT</text>
</g>
<!-- GAT&#45;&gt;ATT -->
<g id="edge8" class="edge">
<title>GAT&#45;&gt;ATT</title>
<path fill="none" stroke="black" d="M71.32,-35.96C63.32,-65.87 50.15,-129.61 66.34,-180 69.75,-190.61 76.16,-200.89 82.75,-209.53"/>
<polygon fill="black" stroke="black" points="79.84,-211.51 88.88,-217.03 85.26,-207.08 79.84,-211.51"/>
</g>
<!-- CAT&#45;&gt;ATT -->
<g id="edge4" class="edge">
<title>CAT&#45;&gt;ATT</title>
<path fill="none" stroke="black" d="M35.36,-360.11C42.14,-341.84 53.98,-312.09 67.34,-288 72.64,-278.45 79.26,-268.49 85.43,-259.83"/>
<polygon fill="black" stroke="black" points="88.15,-262.04 91.22,-251.9 82.5,-257.91 88.15,-262.04"/>
</g>
<!-- ATT&#45;&gt;TTC -->
<g id="edge5" class="edge">
<title>ATT&#45;&gt;TTC</title>
<path fill="none" stroke="black" d="M117.41,-250.26C125.42,-260.36 135.28,-274.24 141.34,-288 157.7,-325.1 161.34,-336.46 161.34,-377 161.34,-451 161.34,-451 161.34,-451 161.34,-491.45 158.46,-502.9 142.34,-540 137.99,-550.02 131.6,-560.08 125.34,-568.71"/>
<polygon fill="black" stroke="black" points="122.65,-566.48 119.38,-576.55 128.22,-570.71 122.65,-566.48"/>
</g>
<!-- TTG -->
<g id="node9" class="node">
<title>TTG</title>
<ellipse fill="none" stroke="black" cx="104.34" cy="-162" rx="28.83" ry="18"/>
<text text-anchor="middle" x="104.34" y="-156.95" font-family="Times,serif" font-size="14.00">TTG</text>
</g>
<!-- ATT&#45;&gt;TTG -->
<g id="edge6" class="edge">
<title>ATT&#45;&gt;TTG</title>
<path fill="none" stroke="black" d="M104.34,-215.7C104.34,-208.41 104.34,-199.73 104.34,-191.54"/>
<polygon fill="black" stroke="black" points="107.84,-191.62 104.34,-181.62 100.84,-191.62 107.84,-191.62"/>
</g>
<!-- TTT -->
<g id="node12" class="node">
<title>TTT</title>
<ellipse fill="none" stroke="black" cx="179.34" cy="-162" rx="27.81" ry="18"/>
<text text-anchor="middle" x="179.34" y="-156.95" font-family="Times,serif" font-size="14.00">TTT</text>
</g>
<!-- ATT&#45;&gt;TTT -->
<g id="edge14" class="edge">
<title>ATT&#45;&gt;TTT</title>
<path fill="none" stroke="black" d="M119.52,-218.83C129.92,-209.13 143.93,-196.06 155.77,-185"/>
<polygon fill="black" stroke="black" points="157.9,-187.8 162.82,-178.42 153.13,-182.68 157.9,-187.8"/>
</g>
<!-- TTG&#45;&gt;TGA -->
<g id="edge12" class="edge">
<title>TTG&#45;&gt;TGA</title>
<path fill="none" stroke="black" d="M104.59,-143.7C104.69,-136.41 104.82,-127.73 104.94,-119.54"/>
<polygon fill="black" stroke="black" points="108.43,-119.67 105.08,-109.62 101.44,-119.57 108.43,-119.67"/>
</g>
<!-- TAT -->
<g id="node11" class="node">
<title>TAT</title>
<ellipse fill="none" stroke="black" cx="104.34" cy="-306" rx="27.81" ry="18"/>
<text text-anchor="middle" x="104.34" y="-300.95" font-family="Times,serif" font-size="14.00">TAT</text>
</g>
<!-- TTA&#45;&gt;TAT -->
<g id="edge11" class="edge">
<title>TTA&#45;&gt;TAT</title>
<path fill="none" stroke="black" d="M104.34,-359.7C104.34,-352.41 104.34,-343.73 104.34,-335.54"/>
<polygon fill="black" stroke="black" points="107.84,-335.62 104.34,-325.62 100.84,-335.62 107.84,-335.62"/>
</g>
<!-- TAT&#45;&gt;ATT -->
<g id="edge9" class="edge">
<title>TAT&#45;&gt;ATT</title>
<path fill="none" stroke="black" d="M104.34,-287.7C104.34,-280.41 104.34,-271.73 104.34,-263.54"/>
<polygon fill="black" stroke="black" points="107.84,-263.62 104.34,-253.62 100.84,-263.62 107.84,-263.62"/>
</g>
</g>
</svg>
